<svg id="visual" viewBox="0 0 1600 1200" width="1600" height="1200" xmlns="http://www.w3.org/2000/svg" xmlns:xlink="http://www.w3.org/1999/xlink" version="1.1"><path d="M0 192L200 223L400 153L600 220L800 233L1000 148L1200 171L1400 256L1600 232L1600 0L1400 0L1200 0L1000 0L800 0L600 0L400 0L200 0L0 0Z" fill="#d7f8ff"></path><path d="M0 212L200 170L400 177L600 171L800 162L1000 177L1200 241L1400 193L1600 218L1600 0L1400 0L1200 0L1000 0L800 0L600 0L400 0L200 0L0 0Z" fill="#bef3fe"></path><path d="M0 153L200 146L400 129L600 163L800 147L1000 125L1200 99L1400 119L1600 118L1600 0L1400 0L1200 0L1000 0L800 0L600 0L400 0L200 0L0 0Z" fill="#a4edfe"></path><path d="M0 75L200 144L400 58L600 143L800 80L1000 135L1200 101L1400 100L1600 66L1600 0L1400 0L1200 0L1000 0L800 0L600 0L400 0L200 0L0 0Z" fill="#86e8fe"></path><path d="M0 84L200 30L400 37L600 71L800 26L1000 25L1200 76L1400 77L1600 78L1600 0L1400 0L1200 0L1000 0L800 0L600 0L400 0L200 0L0 0Z" fill="#61e2ff"></path></svg>