<svg id="visual" viewBox="0 0 3000 1800" width="3000" height="1800" xmlns="http://www.w3.org/2000/svg" xmlns:xlink="http://www.w3.org/1999/xlink" version="1.1"><rect x="0" y="0" width="3000" height="1800" fill="#FFFFFF"></rect><path d="M0 1147L71.5 1143.3C143 1139.7 286 1132.3 428.8 1144.2C571.7 1156 714.3 1187 857.2 1185.2C1000 1183.3 1143 1148.7 1285.8 1122.5C1428.7 1096.3 1571.3 1078.7 1714.2 1081.2C1857 1083.7 2000 1106.3 2142.8 1139C2285.7 1171.7 2428.3 1214.3 2571.2 1204.8C2714 1195.3 2857 1133.7 2928.5 1102.8L3000 1072L3000 1801L2928.5 1801C2857 1801 2714 1801 2571.2 1801C2428.3 1801 2285.7 1801 2142.8 1801C2000 1801 1857 1801 1714.2 1801C1571.3 1801 1428.7 1801 1285.8 1801C1143 1801 1000 1801 857.2 1801C714.3 1801 571.7 1801 428.8 1801C286 1801 143 1801 71.5 1801L0 1801Z" fill="#227a2e"></path><path d="M0 1190L71.5 1214.5C143 1239 286 1288 428.8 1299C571.7 1310 714.3 1283 857.2 1289.3C1000 1295.7 1143 1335.3 1285.8 1337.2C1428.7 1339 1571.3 1303 1714.2 1306.8C1857 1310.7 2000 1354.3 2142.8 1349.7C2285.7 1345 2428.3 1292 2571.2 1270.3C2714 1248.7 2857 1258.3 2928.5 1263.2L3000 1268L3000 1801L2928.5 1801C2857 1801 2714 1801 2571.2 1801C2428.3 1801 2285.7 1801 2142.8 1801C2000 1801 1857 1801 1714.2 1801C1571.3 1801 1428.7 1801 1285.8 1801C1143 1801 1000 1801 857.2 1801C714.3 1801 571.7 1801 428.8 1801C286 1801 143 1801 71.5 1801L0 1801Z" fill="#278d35"></path><path d="M0 1358L71.5 1350.7C143 1343.3 286 1328.7 428.8 1351.7C571.7 1374.7 714.3 1435.3 857.2 1439.3C1000 1443.3 1143 1390.7 1285.8 1393.3C1428.7 1396 1571.3 1454 1714.2 1463.3C1857 1472.7 2000 1433.3 2142.8 1426.3C2285.7 1419.3 2428.3 1444.7 2571.2 1465.7C2714 1486.7 2857 1503.3 2928.5 1511.7L3000 1520L3000 1801L2928.5 1801C2857 1801 2714 1801 2571.2 1801C2428.3 1801 2285.7 1801 2142.8 1801C2000 1801 1857 1801 1714.2 1801C1571.3 1801 1428.7 1801 1285.8 1801C1143 1801 1000 1801 857.2 1801C714.3 1801 571.7 1801 428.8 1801C286 1801 143 1801 71.5 1801L0 1801Z" fill="#2ca03c"></path><path d="M0 1624L71.5 1622.8C143 1621.7 286 1619.3 428.8 1619.2C571.7 1619 714.3 1621 857.2 1593.3C1000 1565.7 1143 1508.3 1285.8 1488.3C1428.7 1468.3 1571.3 1485.7 1714.2 1508.5C1857 1531.3 2000 1559.7 2142.8 1578.2C2285.7 1596.7 2428.3 1605.3 2571.2 1612.2C2714 1619 2857 1624 2928.5 1626.5L3000 1629L3000 1801L2928.5 1801C2857 1801 2714 1801 2571.2 1801C2428.3 1801 2285.7 1801 2142.8 1801C2000 1801 1857 1801 1714.2 1801C1571.3 1801 1428.7 1801 1285.8 1801C1143 1801 1000 1801 857.2 1801C714.3 1801 571.7 1801 428.8 1801C286 1801 143 1801 71.5 1801L0 1801Z" fill="#31b343"></path><path d="M0 1578L71.5 1583.3C143 1588.7 286 1599.3 428.8 1610.2C571.7 1621 714.3 1632 857.2 1648.8C1000 1665.7 1143 1688.3 1285.8 1694.2C1428.7 1700 1571.3 1689 1714.2 1669.5C1857 1650 2000 1622 2142.8 1615.5C2285.7 1609 2428.3 1624 2571.2 1636.7C2714 1649.3 2857 1659.7 2928.5 1664.8L3000 1670L3000 1801L2928.5 1801C2857 1801 2714 1801 2571.2 1801C2428.3 1801 2285.7 1801 2142.8 1801C2000 1801 1857 1801 1714.2 1801C1571.3 1801 1428.7 1801 1285.8 1801C1143 1801 1000 1801 857.2 1801C714.3 1801 571.7 1801 428.8 1801C286 1801 143 1801 71.5 1801L0 1801Z" fill="#37c74a"></path></svg>