<svg id="visual" viewBox="0 0 1600 1200" width="1600" height="1200" xmlns="http://www.w3.org/2000/svg" xmlns:xlink="http://www.w3.org/1999/xlink" version="1.1"><path d="M0 85L14.8 100.2C29.7 115.3 59.3 145.7 89 150C118.7 154.3 148.3 132.7 178 130.3C207.7 128 237.3 145 267 137.8C296.7 130.7 326.3 99.3 355.8 82.5C385.3 65.7 414.7 63.3 444.2 80.8C473.7 98.3 503.3 135.7 533 141.8C562.7 148 592.3 123 622 121.2C651.7 119.3 681.3 140.7 711 139.2C740.7 137.7 770.3 113.3 800 99C829.7 84.7 859.3 80.3 889 95.7C918.7 111 948.3 146 978 147.7C1007.7 149.3 1037.3 117.7 1067 107.2C1096.7 96.7 1126.3 107.3 1155.8 111.7C1185.3 116 1214.7 114 1244.2 111.7C1273.7 109.3 1303.3 106.7 1333 106.5C1362.7 106.3 1392.3 108.7 1422 120.7C1451.7 132.7 1481.3 154.3 1511 156.3C1540.7 158.3 1570.3 140.7 1585.2 131.8L1600 123L1600 0L1585.2 0C1570.3 0 1540.7 0 1511 0C1481.3 0 1451.7 0 1422 0C1392.3 0 1362.7 0 1333 0C1303.3 0 1273.7 0 1244.2 0C1214.7 0 1185.3 0 1155.8 0C1126.3 0 1096.7 0 1067 0C1037.3 0 1007.7 0 978 0C948.3 0 918.7 0 889 0C859.3 0 829.7 0 800 0C770.3 0 740.7 0 711 0C681.3 0 651.7 0 622 0C592.3 0 562.7 0 533 0C503.3 0 473.7 0 444.2 0C414.7 0 385.3 0 355.8 0C326.3 0 296.7 0 267 0C237.3 0 207.7 0 178 0C148.3 0 118.7 0 89 0C59.3 0 29.7 0 14.8 0L0 0Z" fill="#815d69" stroke-linecap="round" stroke-linejoin="miter"></path></svg>